<?xml version="1.0" encoding="iso-8859-1"?>
<!-- Generator: Adobe Illustrator 19.0.0, SVG Export Plug-In . SVG Version: 6.00 Build 0)  -->
<svg version="1.1" id="Layer_1" xmlns="http://www.w3.org/2000/svg" xmlns:xlink="http://www.w3.org/1999/xlink" x="0px" y="0px"
	 viewBox="0 0 503.322 503.322" style="enable-background:new 0 0 503.322 503.322;" xml:space="preserve">
<g>
	<path style="fill:#E64C3C;" d="M316.733,0H212.597C150.289,0,99.784,50.506,99.784,112.814v48.84
		c-20.714,12.687-26.008,47.39-26.008,81.694c0,50.245,60.72,129.805,78.076,147.161v95.458c0,9.58,7.775,17.356,17.356,17.356
		h190.915c9.58,0,17.356-7.775,17.356-17.356V363.98c31.275-20.055,52.068-55.044,52.068-94.963V112.814
		C429.546,50.506,379.041,0,316.733,0"/>
	<path style="fill:#C03A2B;" d="M394.834,121.492c-4.79,0-8.678-3.879-8.678-8.678c0-38.279-31.145-69.424-69.424-69.424H212.597
		c-38.279,0-69.424,31.145-69.424,69.424c0,4.799-3.888,8.678-8.678,8.678s-8.678-3.879-8.678-8.678
		c0-47.85,38.929-86.78,86.78-86.78h104.136c47.85,0,86.78,38.929,86.78,86.78C403.512,117.612,399.625,121.492,394.834,121.492"/>
	<g>
		<path style="fill:#E6E7E8;" d="M282.021,399.186c-2.222,0-4.443-0.85-6.135-2.543l-34.712-34.712
			c-3.393-3.393-3.393-8.878,0-12.271c3.393-3.393,8.878-3.393,12.271,0l34.712,34.712c3.393,3.393,3.393,8.878,0,12.271
			C286.464,398.336,284.242,399.186,282.021,399.186"/>
		<path style="fill:#E6E7E8;" d="M247.309,399.186c-2.222,0-4.443-0.85-6.135-2.543c-3.393-3.393-3.393-8.878,0-12.271
			l34.712-34.712c3.393-3.393,8.878-3.393,12.271,0c3.393,3.393,3.393,8.878,0,12.271l-34.712,34.712
			C251.752,398.336,249.531,399.186,247.309,399.186"/>
		<path style="fill:#E6E7E8;" d="M282.021,468.61c-2.222,0-4.443-0.85-6.135-2.543l-34.712-34.712
			c-3.393-3.393-3.393-8.878,0-12.271c3.393-3.393,8.878-3.393,12.271,0l34.712,34.712c3.393,3.393,3.393,8.878,0,12.271
			C286.464,467.76,284.242,468.61,282.021,468.61"/>
		<path style="fill:#E6E7E8;" d="M247.309,468.61c-2.222,0-4.443-0.85-6.135-2.543c-3.393-3.393-3.393-8.878,0-12.271l34.712-34.712
			c3.393-3.393,8.878-3.393,12.271,0c3.393,3.393,3.393,8.878,0,12.271l-34.712,34.712
			C251.752,467.76,249.531,468.61,247.309,468.61"/>
	</g>
	<g>
		<path style="fill:#C03A2B;" d="M195.254,269.458c0.234,4.634,4.07,8.235,8.661,8.235c0.148,0,0.295,0,0.443-0.009
			c4.79-0.243,8.47-4.322,8.227-9.112c-0.156-3.133-4.669-77.138-74.006-110.089c-14.492-6.89-27.431-10.058-38.791-9.719v12.887
			c-2.525,1.545-4.799,3.419-6.882,5.571c9.685-2.812,22.467-0.547,38.226,6.942C190.933,202.577,195.107,266.75,195.254,269.458"/>
		<path style="fill:#C03A2B;" d="M195.241,416.542c0-4.799-3.888-8.678-8.678-8.678c-9.971,0-25.175-6.474-34.712-13.06v20.15
			c10.483,5.519,23.491,10.266,34.712,10.266C191.353,425.22,195.241,421.341,195.241,416.542"/>
		<path style="fill:#C03A2B;" d="M377.479,381.848c-2.248,0-4.487,0.85-6.187,2.577c-7.194,7.315-25.973,14.761-37.202,14.761
			c-4.79,0-8.678,3.879-8.678,8.678s3.888,8.678,8.678,8.678c13.338,0,31.614-6.543,43.39-14.883V381.848z"/>
	</g>
</g>
<g>
</g>
<g>
</g>
<g>
</g>
<g>
</g>
<g>
</g>
<g>
</g>
<g>
</g>
<g>
</g>
<g>
</g>
<g>
</g>
<g>
</g>
<g>
</g>
<g>
</g>
<g>
</g>
<g>
</g>
</svg>
