<?xml version="1.0" encoding="iso-8859-1"?>
<!-- Generator: Adobe Illustrator 18.0.0, SVG Export Plug-In . SVG Version: 6.00 Build 0)  -->
<!DOCTYPE svg PUBLIC "-//W3C//DTD SVG 1.1//EN" "http://www.w3.org/Graphics/SVG/1.1/DTD/svg11.dtd">
<svg version="1.1" id="Capa_1" xmlns="http://www.w3.org/2000/svg" xmlns:xlink="http://www.w3.org/1999/xlink" x="0px" y="0px"
	 viewBox="0 0 302.002 302.002" style="enable-background:new 0 0 302.002 302.002;" xml:space="preserve">
<g>
	<g>
		<path style="fill:#32373B;" d="M151.001,76.002c-2.762,0-5-2.238-5-5v-66c0-2.762,2.238-5,5-5s5,2.238,5,5v66
			C156.001,73.764,153.763,76.002,151.001,76.002z"/>
	</g>
	<g>
		<path style="fill:#43484C;" d="M117.997,76.003c-0.752,0-1.515-0.17-2.232-0.529c-2.47-1.234-3.471-4.238-2.235-6.708l33-66
			c1.235-2.471,4.238-3.473,6.708-2.235c2.47,1.234,3.471,4.238,2.235,6.708l-33,66C121.597,74.99,119.831,76.003,117.997,76.003z"
			/>
	</g>
	<g>
		<path style="fill:#212528;" d="M184.005,76.003c-1.834,0-3.6-1.013-4.476-2.765l-33-66c-1.235-2.47-0.234-5.474,2.235-6.708
			c2.471-1.237,5.474-0.233,6.708,2.235l33,66c1.235,2.47,0.234,5.474-2.235,6.708C185.52,75.833,184.756,76.003,184.005,76.003z"/>
	</g>
	<g>
		<path style="fill:#C63C22;" d="M200.501,82.585c0-15.51-12.573-28.083-28.083-28.083h-42.833
			c-15.51,0-28.083,12.573-28.083,28.083v20.417h99V82.585z"/>
	</g>
	<g style="opacity:0.36;">
		<path style="fill:#C63C22;" d="M172.417,54.502h-16.5c15.51,0,28.083,12.573,28.083,28.083v20.417h16.5V82.585
			C200.501,67.075,187.927,54.502,172.417,54.502z"/>
	</g>
	<g>
		<rect x="101.501" y="103.002" style="fill:#F86E51;" width="99" height="18"/>
	</g>
	<g>
		<rect x="101.501" y="121.002" style="fill:#C63C22;" width="99" height="115"/>
	</g>
	<g>
		<rect x="101.501" y="236.002" style="fill:#F86E51;" width="99" height="17"/>
	</g>
	<g style="opacity:0.54;">
		<rect x="184.001" y="103.002" style="fill:#F86E51;" width="16.5" height="18"/>
	</g>
	<g style="opacity:0.54;">
		<rect x="184.001" y="121.002" style="fill:#C63C22;" width="16.5" height="115"/>
	</g>
	<g style="opacity:0.54;">
		<rect x="184.001" y="236.002" style="fill:#F86E51;" width="16.5" height="17"/>
	</g>
	<g>
		<path style="fill:#C63C22;" d="M101.501,253.002v20.916c0,15.51,12.573,28.083,28.083,28.083h42.833
			c15.51,0,28.083-12.573,28.083-28.083v-20.916H101.501z"/>
	</g>
	<g style="opacity:0.36;">
		<path style="fill:#C63C22;" d="M184.001,253.002v20.916c0,15.51-12.573,28.083-28.083,28.083h16.5
			c15.51,0,28.083-12.573,28.083-28.083v-20.916H184.001z"/>
	</g>
	<g>
		<path style="fill:#32373B;" d="M184.001,10.002h-66c-2.762,0-5-2.238-5-5s2.238-5,5-5h66c2.762,0,5,2.238,5,5
			S186.763,10.002,184.001,10.002z"/>
	</g>
</g>
<g>
</g>
<g>
</g>
<g>
</g>
<g>
</g>
<g>
</g>
<g>
</g>
<g>
</g>
<g>
</g>
<g>
</g>
<g>
</g>
<g>
</g>
<g>
</g>
<g>
</g>
<g>
</g>
<g>
</g>
</svg>
