<svg id="Слой_1" data-name="Слой 1" xmlns="http://www.w3.org/2000/svg" viewBox="0 0 350 350"><defs><style>.cls-1{fill:#fff;}</style></defs><title>Монтажная область 1</title><path class="cls-1" d="M185.66,131.17a5.41,5.41,0,0,1,1,6.34L108.78,304.39a6.34,6.34,0,0,1-6.06,3.61,12.21,12.21,0,0,1-2-.29A6.16,6.16,0,0,1,97,305a5.46,5.46,0,0,1-.65-4.33L124.79,184.1,66.23,198.67a7.64,7.64,0,0,1-1.73.15A6.69,6.69,0,0,1,60,197.23a5.38,5.38,0,0,1-1.87-5.63l29-119a6.18,6.18,0,0,1,2.31-3.32,6.54,6.54,0,0,1,4-1.3H140.8a6.41,6.41,0,0,1,4.62,1.8,5.71,5.71,0,0,1,1.87,4.26,5.9,5.9,0,0,1-.72,2.6l-24.66,66.78L179,129.3a8,8,0,0,1,1.73-.29,6.75,6.75,0,0,1,4.9,2.16Z"/></svg>