<svg id="Слой_1" data-name="Слой 1" xmlns="http://www.w3.org/2000/svg" xmlns:xlink="http://www.w3.org/1999/xlink" viewBox="0 0 350 350"><defs><style>.cls-1{fill:none;}.cls-2{clip-path:url(#clip-path);}.cls-3{fill:#666;}</style><clipPath id="clip-path"><rect class="cls-1" x="63" y="72" width="247" height="247"/></clipPath></defs><title>Монтажная область 1</title><g class="cls-2"><g class="cls-2"><path class="cls-3" d="M233.56,177q0-27.46-19.52-47t-47-19.52q-27.46,0-47,19.52t-19.52,47q0,27.47,19.52,47t47,19.51q27.47,0,47-19.51t19.52-47m76,123.51a19.26,19.26,0,0,1-19,19,17.64,17.64,0,0,1-13.36-5.64l-50.92-50.77a101.64,101.64,0,0,1-59.23,18.41,102.68,102.68,0,0,1-40.6-8.24,102.31,102.31,0,0,1-55.67-55.66,104.17,104.17,0,0,1,0-81.2,102.32,102.32,0,0,1,55.67-55.67,104.21,104.21,0,0,1,81.2,0,102.32,102.32,0,0,1,55.67,55.67,102.71,102.71,0,0,1,8.24,40.6,101.64,101.64,0,0,1-18.41,59.23l50.92,50.92a18.18,18.18,0,0,1,5.49,13.36"/></g></g></svg>